<?xml version="1.0" encoding="utf-8"?>
<!-- Generator: Adobe Illustrator 15.1.0, SVG Export Plug-In . SVG Version: 6.00 Build 0)  -->
<!DOCTYPE svg PUBLIC "-//W3C//DTD SVG 1.1//EN" "http://www.w3.org/Graphics/SVG/1.1/DTD/svg11.dtd">
<svg version="1.1" id="Capa_3" xmlns="http://www.w3.org/2000/svg" xmlns:xlink="http://www.w3.org/1999/xlink" x="0px" y="0px"
	 width="51.02px" height="79.37px" viewBox="0 0 51.02 79.37" enable-background="new 0 0 51.02 79.37" xml:space="preserve">
<g>
	<g>
		<path fill="#FFFFFF" d="M14.46,60.985c-0.101,0.7-0.701,1.2-1.5,1.2H1.859c-0.7,0-1.3-0.4-1.3-1.1l0.1-0.201l7.1-59.3
			c0.101-0.7,0.201-1,1-1.1H20.56h0.199c0.601,0,0.9,0.4,0.9,1v0.2L14.46,60.985z"/>
		<path fill="#FFFFFF" d="M42.76,62.985c-1.601,12.899-9.7,15.899-19.399,15.899c-5.701,0-6.5-0.199-8-0.399
			c-0.701-0.101-1.5-0.2-1.5-1.3v-0.5l0.6-4.801c0.199-1.399,0.699-1.699,2-1.699c1.199-0.1,2.699-0.1,4.5-0.2
			c4.3-0.2,7.3-0.601,8.1-6.7l7.5-61.6c0.1-0.7,0.7-1.1,1.4-1.2l11.3,0.2h0.2c0.699,0,1,0.4,1,1L42.76,62.985z"/>
	</g>
</g>
</svg>
